<svg xmlns="http://www.w3.org/2000/svg" xmlns:xlink="http://www.w3.org/1999/xlink" width="500" zoomAndPan="magnify" viewBox="0 0 375 374.999991" height="500" preserveAspectRatio="xMidYMid meet" version="1.0"><defs><g/><clipPath id="560c128dfb"><rect x="0" width="272" y="0" height="163"/></clipPath></defs><g transform="matrix(1, 0, 0, 1, 52, 106)"><g clip-path="url(#560c128dfb)"><g fill="#000000" fill-opacity="1"><g transform="translate(0.644429, 115.606668)"><g><path d="M 11.671875 -66.5 L 11.671875 -91.265625 L 34.609375 -91.265625 L 34.609375 -66.5 L 48.609375 -66.5 L 48.609375 -49 L 34.609375 -49 L 34.609375 -27.875 C 34.609375 -21.738281 36.335938 -18.671875 39.796875 -18.671875 C 40.660156 -18.671875 41.566406 -18.84375 42.515625 -19.1875 C 43.472656 -19.53125 44.207031 -19.875 44.71875 -20.21875 L 45.5 -20.75 L 51.203125 -2.203125 C 46.273438 0.554688 40.660156 1.9375 34.359375 1.9375 C 30.035156 1.9375 26.316406 1.179688 23.203125 -0.328125 C 20.085938 -1.835938 17.726562 -3.863281 16.125 -6.40625 C 14.53125 -8.957031 13.390625 -11.640625 12.703125 -14.453125 C 12.015625 -17.265625 11.671875 -20.269531 11.671875 -23.46875 L 11.671875 -49 L 2.078125 -49 L 2.078125 -66.5 Z M 11.671875 -66.5 "/></g></g></g><g fill="#000000" fill-opacity="1"><g transform="translate(41.73775, 115.606668)"><g><path d="M 58.203125 -66.5 L 84.65625 -66.5 L 32.40625 33.703125 L 5.96875 33.703125 L 28.90625 -10.375 L -2.59375 -66.5 L 23.859375 -66.5 L 42.390625 -32.40625 Z M 58.203125 -66.5 "/></g></g></g><g fill="#000000" fill-opacity="1"><g transform="translate(113.68442, 115.606668)"><g><path d="M 4.796875 16.328125 L 23.59375 7.125 C 27.050781 12.832031 33.054688 15.6875 41.609375 15.6875 C 45.585938 15.6875 49.28125 14.410156 52.6875 11.859375 C 56.101562 9.304688 57.8125 5.394531 57.8125 0.125 L 57.8125 -4.796875 C 53.757812 -0.304688 46.503906 1.9375 36.046875 1.9375 C 26.453125 1.9375 18.539062 -1.453125 12.3125 -8.234375 C 6.09375 -15.015625 2.984375 -23.332031 2.984375 -33.1875 C 2.984375 -43.039062 6.09375 -51.378906 12.3125 -58.203125 C 18.539062 -65.035156 26.453125 -68.453125 36.046875 -68.453125 C 44.597656 -68.453125 51.726562 -65.816406 57.4375 -60.546875 L 57.8125 -60.546875 L 57.8125 -66.5 L 80.765625 -66.5 L 80.765625 1.8125 C 80.765625 12.613281 77.175781 20.953125 70 26.828125 C 62.832031 32.710938 53.367188 35.65625 41.609375 35.65625 C 22.597656 35.65625 10.328125 29.210938 4.796875 16.328125 Z M 31.828125 -44.46875 C 28.847656 -41.53125 27.359375 -37.769531 27.359375 -33.1875 C 27.359375 -28.601562 28.78125 -24.863281 31.625 -21.96875 C 34.476562 -19.070312 38.238281 -17.625 42.90625 -17.625 C 47.40625 -17.625 51.101562 -19.09375 54 -22.03125 C 56.894531 -24.976562 58.34375 -28.695312 58.34375 -33.1875 C 58.34375 -37.769531 56.847656 -41.53125 53.859375 -44.46875 C 50.878906 -47.40625 47.226562 -48.875 42.90625 -48.875 C 38.5 -48.875 34.804688 -47.40625 31.828125 -44.46875 Z M 31.828125 -44.46875 "/></g></g></g><g fill="#000000" fill-opacity="1"><g transform="translate(192.112867, 115.606668)"><g><path d="M 75.0625 -30.078125 L 26.828125 -30.078125 C 26.828125 -25.410156 28.335938 -21.953125 31.359375 -19.703125 C 34.390625 -17.453125 37.675781 -16.328125 41.21875 -16.328125 C 44.9375 -16.328125 47.875 -16.820312 50.03125 -17.8125 C 52.195312 -18.8125 54.664062 -20.78125 57.4375 -23.71875 L 74.03125 -15.421875 C 67.113281 -3.847656 55.617188 1.9375 39.546875 1.9375 C 29.515625 1.9375 20.910156 -1.492188 13.734375 -8.359375 C 6.566406 -15.234375 2.984375 -23.507812 2.984375 -33.1875 C 2.984375 -42.863281 6.566406 -51.160156 13.734375 -58.078125 C 20.910156 -64.992188 29.515625 -68.453125 39.546875 -68.453125 C 50.085938 -68.453125 58.660156 -65.40625 65.265625 -59.3125 C 71.878906 -53.21875 75.1875 -44.507812 75.1875 -33.1875 C 75.1875 -31.632812 75.144531 -30.597656 75.0625 -30.078125 Z M 27.484375 -42.78125 L 52.765625 -42.78125 C 52.242188 -46.238281 50.878906 -48.894531 48.671875 -50.75 C 46.472656 -52.613281 43.644531 -53.546875 40.1875 -53.546875 C 36.382812 -53.546875 33.359375 -52.550781 31.109375 -50.5625 C 28.867188 -48.570312 27.660156 -45.976562 27.484375 -42.78125 Z M 27.484375 -42.78125 "/></g></g></g></g></g></svg>